<svg width="71" height="51" viewBox="0 0 71 51" fill="none" xmlns="http://www.w3.org/2000/svg">
<path fill-rule="evenodd" clip-rule="evenodd" d="M61.4012 16.9566C59.8736 16.9566 58.5598 16.3837 57.4599 15.238C56.3601 14.0923 55.8101 12.5341 55.8101 10.5635C55.8101 8.60814 56.3524 7.06524 57.437 5.9348C58.5369 4.78909 59.8583 4.21623 61.4012 4.21623C62.9288 4.21623 64.2044 4.82728 65.2279 6.04938V0H68.7109V16.7274H65.2279V14.963C64.2502 16.2921 62.9746 16.9566 61.4012 16.9566ZM60.1638 13.0612C60.7443 13.6875 61.4547 14.0006 62.2949 14.0006C63.135 14.0006 63.8377 13.6875 64.403 13.0612C64.9835 12.4196 65.2737 11.587 65.2737 10.5635C65.2737 9.57054 64.9835 8.7609 64.403 8.13458C63.8377 7.49298 63.135 7.17218 62.2949 7.17218C61.4547 7.17218 60.7443 7.49298 60.1638 8.13458C59.5833 8.7609 59.2931 9.58582 59.2931 10.6093C59.2931 11.6023 59.5833 12.4196 60.1638 13.0612ZM1.21446 8.70743C1.21446 11.1211 1.99354 13.107 3.55172 14.6652C5.12517 16.2233 7.1569 17.0024 9.64692 17.0024C12.2133 17.0024 14.4971 16.1546 16.4983 14.4589V7.49298H9.53235V10.5406H13.0841V12.832C12.1828 13.4736 11.0752 13.7944 9.76149 13.7944C8.34081 13.7944 7.17218 13.3132 6.2556 12.3508C5.35431 11.3884 4.90366 10.174 4.90366 8.70743C4.90366 7.3173 5.34667 6.13339 6.23269 5.15572C7.13399 4.16276 8.22623 3.66629 9.50944 3.66629C10.3802 3.66629 11.1287 3.79614 11.755 4.05583C12.3814 4.31553 13.0306 4.72798 13.7028 5.2932L15.9254 2.61223C15.0394 1.8637 14.1152 1.31375 13.1528 0.962401C12.1904 0.595772 11.0141 0.412458 9.62401 0.412458C7.22564 0.412458 5.22446 1.2221 3.62046 2.84137C2.01646 4.44537 1.21446 6.40073 1.21446 8.70743ZM19.5271 4.44537V16.7274H23.0101V12.1904C23.0101 10.7544 23.3309 9.67747 23.9725 8.95949C24.6294 8.22623 25.5536 7.85961 26.7451 7.85961H26.9284V4.21623C25.1106 4.13985 23.8044 5.04115 23.0101 6.92012V4.44537H19.5271ZM32.0057 16.9566C30.7989 16.9566 29.7907 16.6205 28.981 15.9484C28.1867 15.2762 27.7895 14.3444 27.7895 13.1528C27.7895 11.8543 28.2325 10.8767 29.1185 10.2198C30.0198 9.5629 31.2266 9.23446 32.739 9.23446C33.7625 9.23446 34.7631 9.4025 35.7408 9.73858V9.53235C35.7408 8.03528 34.8624 7.28675 33.1056 7.28675C32.0516 7.28675 30.9211 7.50825 29.7143 7.95126L28.8436 5.2932C30.3406 4.63633 31.9293 4.30789 33.6097 4.30789C35.4581 4.30789 36.8406 4.76617 37.7572 5.68275C38.6432 6.56877 39.0863 7.87488 39.0863 9.60109V16.7274H35.7178V15.3984C34.786 16.4372 33.5486 16.9566 32.0057 16.9566ZM33.0598 14.5506C33.8694 14.5506 34.5263 14.352 35.0304 13.9548C35.5345 13.5424 35.7866 13.023 35.7866 12.3966V11.778C35.1297 11.4724 34.3888 11.3197 33.5639 11.3197C32.8001 11.3197 32.2043 11.4724 31.7766 11.778C31.3641 12.0682 31.1579 12.4959 31.1579 13.0612C31.1579 13.5194 31.3336 13.8861 31.6849 14.161C32.0363 14.4207 32.4946 14.5506 33.0598 14.5506ZM42.0834 4.44537V16.7274H45.5663V9.87606C45.5663 9.06642 45.7573 8.44774 46.1392 8.02001C46.5364 7.59227 47.071 7.3784 47.7432 7.3784C48.4154 7.3784 48.9347 7.59227 49.3014 8.02001C49.668 8.44774 49.8513 9.06642 49.8513 9.87606V16.7274H53.3343V8.77618C53.3343 7.35549 52.9677 6.24033 52.2344 5.43069C51.5011 4.62105 50.4776 4.21623 49.1639 4.21623C47.789 4.21623 46.5898 4.87311 45.5663 6.18686V4.44537H42.0834ZM3 22.7274C1.34315 22.7274 0 24.0706 0 25.7274V47.7274C0 49.3843 1.34314 50.7274 3 50.7274H68C69.6569 50.7274 71 49.3843 71 47.7274V25.7274C71 24.0706 69.6569 22.7274 68 22.7274H3ZM49.7965 27.6691V43.7274H53.1402V37.1501C53.1402 36.3728 53.3235 35.7789 53.6901 35.3683C54.0714 34.9576 54.5847 34.7523 55.2299 34.7523C55.8752 34.7523 56.3738 34.9576 56.7258 35.3683C57.0778 35.7789 57.2537 36.3728 57.2537 37.1501V43.7274H60.5974V36.0942C60.5974 34.7303 60.2454 33.6598 59.5415 32.8825C58.8376 32.1053 57.855 31.7167 56.5938 31.7167C55.2739 31.7167 54.1227 32.3473 53.1402 33.6085V27.6691H49.7965ZM11.4098 41.7036C12.9203 43.2288 14.8048 43.9914 17.0632 43.9914C18.4857 43.9914 19.6809 43.7787 20.6488 43.3534C21.6314 42.9282 22.5406 42.2682 23.3765 41.3736L21.2208 39.0639C20.5462 39.6798 19.9082 40.1344 19.307 40.4277C18.7057 40.7211 17.9944 40.8677 17.1732 40.8677C15.8827 40.8677 14.8121 40.3984 13.9615 39.4599C13.1256 38.5213 12.7077 37.3774 12.7077 36.0282C12.7077 34.6643 13.1256 33.5205 13.9615 32.5966C14.8121 31.658 15.8827 31.1887 17.1732 31.1887C17.9944 31.1887 18.691 31.328 19.263 31.6067C19.8496 31.8706 20.4728 32.3033 21.1328 32.9045L23.1566 30.5728C22.3353 29.7662 21.4701 29.1502 20.5608 28.725C19.6516 28.285 18.5297 28.065 17.1952 28.065C14.8634 28.065 12.9423 28.8349 11.4318 30.3748C9.92127 31.9146 9.16602 33.7991 9.16602 36.0282C9.16602 38.272 9.91394 40.1638 11.4098 41.7036ZM26.1764 42.9795C26.9537 43.6248 27.9216 43.9474 29.0801 43.9474C30.5613 43.9474 31.7492 43.4488 32.6438 42.4515V43.7274H35.8774V36.8861C35.8774 35.229 35.4522 33.9751 34.6016 33.1245C33.7217 32.2446 32.3945 31.8046 30.62 31.8046C29.0068 31.8046 27.4816 32.1199 26.0445 32.7505L26.8804 35.3023C28.0389 34.877 29.1241 34.6643 30.136 34.6643C31.8225 34.6643 32.6658 35.3829 32.6658 36.8201V37.0181C31.7272 36.6955 30.7666 36.5341 29.7841 36.5341C28.3322 36.5341 27.1737 36.8495 26.3084 37.4801C25.4579 38.1107 25.0326 39.0492 25.0326 40.2958C25.0326 41.4396 25.4139 42.3342 26.1764 42.9795ZM31.9838 41.0657C31.4999 41.447 30.8693 41.6376 30.092 41.6376C29.5494 41.6376 29.1095 41.513 28.7722 41.2637C28.4349 40.9997 28.2662 40.6477 28.2662 40.2078C28.2662 39.6652 28.4642 39.2545 28.8602 38.9759C29.2708 38.6826 29.8427 38.5359 30.576 38.5359C31.3679 38.5359 32.0792 38.6826 32.7098 38.9759V39.5698C32.7098 40.1711 32.4678 40.6697 31.9838 41.0657ZM42.8902 43.9474C41.0278 43.9474 39.3413 43.3534 37.8308 42.1656L39.2606 39.9658C40.5512 40.9044 41.7904 41.3736 42.9782 41.3736C43.9168 41.3736 44.3861 41.0657 44.3861 40.4497C44.3861 40.3764 44.3714 40.3031 44.3421 40.2298C44.3274 40.1564 44.2908 40.0905 44.2321 40.0318C44.1735 39.9731 44.1075 39.9218 44.0341 39.8778C43.9755 39.8191 43.8875 39.7678 43.7702 39.7238C43.6675 39.6652 43.5722 39.6212 43.4842 39.5918C43.4109 39.5478 43.3009 39.5038 43.1542 39.4599C43.0076 39.4012 42.8829 39.3572 42.7803 39.3279C42.6776 39.2985 42.5383 39.2619 42.3623 39.2179C42.1863 39.1592 42.047 39.1152 41.9443 39.0859C41.4457 38.9392 41.0204 38.7926 40.6685 38.6459C40.3312 38.4846 39.9719 38.272 39.5906 38.008C39.2093 37.7294 38.916 37.3847 38.7107 36.9741C38.52 36.5488 38.4247 36.0575 38.4247 35.5003C38.4247 34.3417 38.8353 33.4325 39.6566 32.7725C40.4778 32.0979 41.5044 31.7606 42.7363 31.7606C44.3201 31.7606 45.7866 32.2153 47.1358 33.1245L45.8599 35.4343C44.6134 34.701 43.5502 34.3344 42.6703 34.3344C41.849 34.3344 41.4384 34.6203 41.4384 35.1923C41.4384 35.5882 42.113 36.0135 43.4622 36.4682C43.6235 36.5268 43.7482 36.5708 43.8362 36.6001C44.2321 36.7321 44.5694 36.8568 44.848 36.9741C45.1267 37.0914 45.442 37.2527 45.7939 37.4581C46.1459 37.6634 46.4246 37.8833 46.6299 38.118C46.8498 38.338 47.0332 38.6239 47.1798 38.9759C47.3265 39.3279 47.3998 39.7165 47.3998 40.1418C47.3998 41.403 46.9818 42.3562 46.1459 43.0015C45.3247 43.6321 44.2394 43.9474 42.8902 43.9474Z" fill="#2B7EFF"/>
</svg>
